<svg width="120" height="46" viewBox="0 0 120 46" fill="none" xmlns="http://www.w3.org/2000/svg">
<g clip-path="url(#clip0_673_5306)">
<path d="M43.7999 12.0774V41.555C43.7999 42.6961 42.8747 43.6213 41.7336 43.6213H41.5691C40.4279 43.6213 39.5027 42.6961 39.5027 41.555V12.0222L39.5046 11.9129C39.5261 11.4465 39.5999 7.80542 36.942 5.70168C34.3036 3.61383 30.2111 3.86149 27.2018 6.28673L7.77748 23.2138C6.75038 24.354 5.46626 26.2269 5.01486 28.797C4.08869 34.0596 7.48589 37.9176 7.63075 38.0783C10.6943 41.4905 14.8186 41.7148 16.0139 41.7054C20.3691 41.6596 23.2457 39.0503 24.0214 38.254L24.1364 38.1428L30.7653 32.2335C31.5429 31.4101 31.5747 30.0877 30.8307 29.2578C30.1139 28.4615 28.8775 28.3232 27.9747 28.925L20.7466 35.4325C19.5373 36.74 17.827 37.5157 16.0336 37.5643C14.2289 37.6148 12.4793 36.9269 11.2392 35.6783C9.97094 34.3998 9.29804 32.6101 9.39056 30.7624C9.48495 28.9017 10.3541 27.1596 11.7775 25.9755L27.4261 12.0391V12.0222C27.4261 10.4671 28.4812 9.08486 29.998 8.73906C32.4093 8.19046 34.1466 10.1867 34.1756 12.0222C34.1971 13.3363 33.3392 14.254 33.1093 14.483C32.8345 14.7278 31.9793 15.4213 30.7999 15.397C30.6008 15.3933 30.398 15.368 30.198 15.3241L14.6046 29.2101C14.5831 29.2288 14.5607 29.2475 14.5392 29.2662C13.841 29.84 13.7027 30.5867 13.6822 30.9821C13.6504 31.6213 13.8709 32.2306 14.2878 32.6503C14.6962 33.0615 15.2878 33.2849 15.9158 33.269C16.5803 33.2503 17.1878 32.9708 17.6242 32.4792C17.6765 32.4204 17.7336 32.3624 17.7924 32.311L25.1943 25.6465C25.2485 25.5979 25.3055 25.5503 25.3644 25.5082C28.0298 23.5596 31.8336 23.9465 34.0242 26.3858C36.3149 28.9363 36.2055 32.8512 33.7747 35.2989C33.7429 35.3288 33.7121 35.3596 33.6803 35.3886L27.041 41.3092C25.6242 42.7447 21.8251 45.9409 16.056 45.9998H15.9392C14.1541 45.9998 8.60458 45.597 4.43168 40.9475C3.92421 40.3821 -0.482335 35.226 0.779347 28.0512C1.42327 24.3923 3.26066 21.7727 4.68963 20.2194C4.74383 20.1606 4.79897 20.1045 4.85972 20.054L24.4055 3.02037C24.4242 3.00355 24.4429 2.9886 24.4625 2.97271C29.0233 -0.732901 35.3915 -1.00486 39.6055 2.32972C43.8074 5.65402 43.8429 10.9054 43.7952 12.0727L43.7999 12.0774Z" fill="#21597F"/>
<path d="M49.5214 21.1115C50.5504 22.247 51.9541 22.9583 53.4728 23.1143C53.542 23.1218 53.6111 23.1256 53.6803 23.1256H58.541C60.0233 22.9508 61.213 24.1302 61.1644 25.3125C61.1214 26.3555 60.1158 27.3433 58.8186 27.334L50.6719 27.2779C49.6513 27.4928 48.9448 28.4358 49.0233 29.4564C49.099 30.4442 49.8887 31.2527 50.8924 31.3527L58.7588 31.4069C60.513 31.4741 62.2298 30.7984 63.4775 29.548C64.7149 28.3069 65.3775 26.6171 65.2943 24.9125C65.2121 23.2452 64.4177 21.6517 63.1139 20.5414C61.8195 19.4377 60.1214 18.8994 58.4401 19.0527H53.8027C52.784 18.9041 51.9999 18.0218 52.0008 17.0059C52.0027 15.9489 52.8653 15.0377 53.9354 14.9508L61.8887 14.9919C63.0859 15.0078 64.0466 14.0022 63.9943 12.8592C63.9438 11.7667 62.984 10.8741 61.841 10.9181L53.8831 10.877C53.8429 10.877 53.8008 10.877 53.7597 10.8807C50.4934 11.0629 47.9317 13.7508 47.927 17.0003C47.9251 18.5162 48.4906 19.976 49.5214 21.1115Z" fill="#21597F"/>
<path d="M93.325 3.79486C93.325 2.66776 92.4886 1.75 91.4606 1.75C90.4325 1.75 89.5961 2.66682 89.5961 3.79486V6.3528H88.4942C87.5624 6.3528 86.8054 7.17991 86.8054 8.19579C86.8054 9.21168 87.5634 10.0388 88.4942 10.0388H89.5961V29.2827C89.5961 30.4098 90.4325 31.3276 91.4606 31.3276C92.4886 31.3276 93.325 30.4107 93.325 29.2827V10.0388H95.4671V6.35187H93.325V3.79393V3.79486Z" fill="#21597F"/>
<path d="M101.881 6.35352H100.207V10.0404H101.881C102.813 10.0404 103.57 9.21333 103.57 8.19744C103.57 7.18155 102.812 6.35445 101.881 6.35445V6.35352Z" fill="#21597F"/>
<path d="M97.8653 1.75C96.8587 1.75 96.04 2.63037 96.04 3.71262V29.3659C96.04 30.4481 96.8587 31.3285 97.8653 31.3285C98.8718 31.3285 99.6905 30.4481 99.6905 29.3659V3.71262C99.6905 2.63037 98.8718 1.75 97.8653 1.75Z" fill="#21597F"/>
<path d="M85.9074 11.0412C85.2354 10.7701 84.484 10.8458 83.8962 11.2449C83.3793 11.5963 83.07 12.1496 83.07 12.7253V25.0879C83.07 27.43 82.2943 27.9094 81.1307 27.9094C79.9672 27.9094 79.1915 27.43 79.1915 25.0879V12.7253C79.1915 12.1496 78.8831 11.5963 78.3653 11.2449C77.7775 10.8458 77.0261 10.7701 76.3541 11.0412C75.6261 11.3356 75.156 12.0131 75.156 12.7673V25.0879C75.156 27.43 74.3803 27.9094 73.2167 27.9094C72.0532 27.9094 71.2775 27.43 71.2775 25.0879V12.7253C71.2775 12.1496 70.969 11.5963 70.4513 11.2449C69.8634 10.8458 69.112 10.7701 68.4401 11.0412C67.712 11.3356 67.2419 12.0131 67.2419 12.7673V25.5057C67.2419 29.2673 69.4195 31.4253 73.2167 31.4253C74.941 31.4253 76.2167 30.9393 77.1737 29.9066C78.1307 30.9393 79.4064 31.4253 81.1307 31.4253C84.9279 31.4253 87.1055 29.2673 87.1055 25.5057V12.7673C87.1055 12.0131 86.6354 11.3356 85.9074 11.0412Z" fill="#21597F"/>
<path d="M117.564 27.2764C114.896 27.2624 111.751 27.2483 109.083 27.2343C107.722 27.2268 106.622 26.1212 106.622 24.7605V23.1156C108.904 23.1268 113.515 23.1465 114.248 23.125C114.296 23.1231 114.368 23.1231 114.455 23.1147C115.975 22.9586 117.378 22.2474 118.407 21.1119C119.437 19.9764 120.002 18.5166 120 17.0007C119.996 13.7502 117.434 11.0624 114.168 10.8801C114.127 10.8773 114.085 10.8764 114.045 10.8773C111.638 10.8801 109.063 10.8829 106.656 10.8866C104.316 10.8895 102.421 12.7876 102.421 15.1278V24.924C102.417 25.4792 102.479 26.0053 102.596 26.4801C102.847 27.6212 103.426 28.6913 104.281 29.5474C105.529 30.7988 107.246 31.4745 109 31.4072L117.344 31.353C118.347 31.2539 119.137 30.4446 119.213 29.4577C119.292 28.4362 118.585 27.4932 117.564 27.2782L117.564 27.2764ZM108.549 14.7109H113.715C114.954 14.7109 115.959 15.9063 115.959 17.1465C115.959 18.3857 114.954 19.3904 113.715 19.3904H106.622V16.6371C106.622 15.5736 107.484 14.7109 108.548 14.7109H108.549Z" fill="#21597F"/>
<path d="M60.1178 41.2803C60.1178 41.7654 59.8449 42.0083 59.2991 42.0083H56.7916C56.2458 42.0083 55.9729 41.7663 55.9729 41.2803V36.8569C55.9729 36.3719 56.2458 36.1289 56.7916 36.1289H59.2991C59.8449 36.1289 60.1178 36.3719 60.1178 36.8569V38.7252C60.1178 38.9102 60.0402 39.0869 59.9047 39.2121C59.7851 39.3224 59.628 39.3831 59.4664 39.3831H57.3626V41.0308H58.728V40.0532H59.5215C59.8514 40.0532 60.1187 40.3233 60.1187 40.656V41.2822L60.1178 41.2803ZM58.7271 38.5158V37.1074H57.3617V38.5158H58.7271Z" fill="#21597F"/>
<path d="M69.9859 36.5775L68.7793 41.7383C68.741 41.9027 68.5952 42.0196 68.427 42.0196H67.7363C67.5662 42.0196 67.4186 41.899 67.3831 41.7308L66.7522 38.7654L66.1214 41.7308C66.0859 41.899 65.9382 42.0196 65.7681 42.0196H65.0896C64.9214 42.0196 64.7756 41.9027 64.7373 41.7383L63.5307 36.5775C63.4775 36.3485 63.6494 36.1289 63.8831 36.1289H64.5158C64.6896 36.1289 64.8391 36.2541 64.8709 36.4261L65.5139 39.8831L66.1513 36.427C66.1831 36.2541 66.3326 36.1289 66.5074 36.1289H67.0111C67.1849 36.1289 67.3345 36.2541 67.3672 36.427L68.0046 39.8831L68.6476 36.4261C68.6793 36.2532 68.8289 36.1289 69.0027 36.1289H69.6354C69.8691 36.1289 70.041 36.3485 69.9877 36.5775H69.9859Z" fill="#21597F"/>
<path d="M55.3299 36.5775L54.1233 41.7383C54.085 41.9027 53.9392 42.0196 53.771 42.0196H53.0803C52.9102 42.0196 52.7626 41.899 52.7271 41.7308L52.0962 38.7654L51.4654 41.7308C51.4299 41.899 51.2822 42.0196 51.1121 42.0196H50.4336C50.2654 42.0196 50.1196 41.9027 50.0813 41.7383L48.8747 36.5775C48.8215 36.3485 48.9934 36.1289 49.2271 36.1289H49.8598C50.0336 36.1289 50.1831 36.2541 50.2149 36.4261L50.8579 39.8831L51.4953 36.427C51.5271 36.2541 51.6766 36.1289 51.8514 36.1289H52.3551C52.5289 36.1289 52.6785 36.2541 52.7112 36.427L53.3486 39.8831L53.9916 36.4261C54.0233 36.2532 54.1729 36.1289 54.3467 36.1289H54.9794C55.213 36.1289 55.385 36.3485 55.3317 36.5775H55.3299Z" fill="#21597F"/>
<path d="M75.0364 41.2803C75.0364 41.7654 74.7672 42.0083 74.2298 42.0083H71.627C71.0812 42.0083 70.8083 41.7663 70.8083 41.2803V36.8569C70.8083 36.3719 71.0812 36.1289 71.627 36.1289H74.2298C74.7672 36.1289 75.0364 36.3719 75.0364 36.8569V41.2803ZM73.614 40.9018V37.2411H72.2364V40.9018H73.614Z" fill="#21597F"/>
<path d="M79.4076 38.5852C79.0094 38.5852 78.687 38.26 78.687 37.8581V37.2403L77.5375 37.2637V42.0076H76.0833V36.9254C76.0833 36.4282 76.4823 36.0254 76.9748 36.0254H77.5365V36.3431C77.8365 36.2927 78.1356 36.2422 78.4319 36.1917C78.7917 36.1338 79.0917 36.1048 79.3337 36.1048C79.8627 36.1048 80.1272 36.3431 80.1272 36.8207V37.8572C80.1272 38.259 79.8047 38.5843 79.4066 38.5843L79.4076 38.5852Z" fill="#21597F"/>
<path d="M84.7036 42.0082H83.8774C83.755 42.0082 83.6438 41.9372 83.5914 41.826L82.4017 39.3129V41.6877C82.4017 41.8643 82.2597 42.0082 82.084 42.0082H81.2653C81.0896 42.0082 80.9475 41.8653 80.9475 41.6877V34.1428C80.9475 33.9662 81.0896 33.8223 81.2653 33.8223H82.084C82.2597 33.8223 82.4017 33.9653 82.4017 34.1428V38.3699L83.3083 36.6017C83.4569 36.311 83.7541 36.1288 84.0793 36.1288H85.069V36.1522L83.5896 38.8241L84.9868 41.54C85.0961 41.7531 84.9428 42.0073 84.7055 42.0073L84.7036 42.0082Z" fill="#21597F"/>
<path d="M90.7757 34.9811H90.2803V36.1288H90.9532C91.0925 36.1288 91.2074 36.2447 91.2074 36.3858V37.0073C91.2074 37.1484 91.0943 37.2634 90.9542 37.2634H90.2803V42.0073H88.8392V37.2634H88.4327C88.2934 37.2634 88.1785 37.1475 88.1785 37.0064V36.3849C88.1785 36.2438 88.2915 36.1288 88.4317 36.1288H88.8392V34.5503C88.8392 34.0653 89.1084 33.8223 89.6458 33.8223H90.7747C91.0897 33.8223 91.3467 34.083 91.3467 34.4017C91.3467 34.7213 91.0906 34.9802 90.7757 34.9811Z" fill="#21597F"/>
<path d="M96.1084 41.2803C96.1084 41.7654 95.8392 42.0083 95.3019 42.0083H92.6991C92.1533 42.0083 91.8804 41.7663 91.8804 41.2803V36.8569C91.8804 36.3719 92.1533 36.1289 92.6991 36.1289H95.3019C95.8392 36.1289 96.1084 36.3719 96.1084 36.8569V41.2803ZM94.686 40.9018V37.2411H93.3084V40.9018H94.686Z" fill="#21597F"/>
<path d="M100.479 38.5862C100.081 38.5862 99.7588 38.261 99.7588 37.8591V37.2414L98.6092 37.2647V42.0087H97.155V36.6516C97.155 36.3068 97.4326 36.0273 97.7747 36.0273H98.6092V36.3451C98.9092 36.2946 99.2083 36.2442 99.5046 36.1937C99.8644 36.1358 100.164 36.1068 100.406 36.1068C100.935 36.1068 101.2 36.3451 101.2 36.8227V37.8591C101.2 38.261 100.877 38.5862 100.479 38.5862Z" fill="#21597F"/>
<path d="M108.768 36.1289C108.905 36.1289 109.004 36.2607 108.967 36.3934L107.435 41.9326L106.883 43.9224C106.845 44.0607 106.721 44.156 106.579 44.156H105.762C105.549 44.156 105.396 43.9485 105.459 43.7429L106 41.9616L104.449 36.3943C104.411 36.2616 104.51 36.1298 104.648 36.1298H105.701C105.798 36.1298 105.881 36.1981 105.903 36.2934L106.711 39.9953L107.52 36.2934C107.54 36.1981 107.624 36.1298 107.722 36.1298H108.769L108.768 36.1289Z" fill="#21597F"/>
<path d="M113.986 41.2803C113.986 41.7654 113.717 42.0083 113.179 42.0083H110.577C110.031 42.0083 109.758 41.7663 109.758 41.2803V36.8569C109.758 36.3719 110.031 36.1289 110.577 36.1289H113.179C113.717 36.1289 113.986 36.3719 113.986 36.8569V41.2803ZM112.563 40.9018V37.2411H111.186V40.9018H112.563Z" fill="#21597F"/>
<path d="M115.827 42.0429C115.298 42.0429 115.034 41.8009 115.034 41.3149V36.7046C115.034 36.3869 115.29 36.1289 115.605 36.1289H115.904C116.219 36.1289 116.475 36.3869 116.475 36.7046V40.9018L117.852 40.8728V36.7055C117.852 36.3878 118.108 36.1298 118.423 36.1298H118.729C119.044 36.1298 119.3 36.3878 119.3 36.7055V41.4345C119.3 41.7513 119.046 42.0083 118.732 42.0083H117.852" fill="#21597F"/>
</g>
<defs>
<clipPath id="clip0_673_5306">
<rect width="119.447" height="46" fill="white" transform="translate(0.553223)"/>
</clipPath>
</defs>
</svg>
